<?xml version="1.0" encoding="UTF-8" standalone="no"?>
<svg
   viewBox="0 0 48 48"
   width="48px"
   height="48px"
   version="1.1"
   id="svg4"
   sodipodi:docname="icons8-logo-google.svg"
   inkscape:version="1.3.2 (091e20e, 2023-11-25)"
   xmlns:inkscape="http://www.inkscape.org/namespaces/inkscape"
   xmlns:sodipodi="http://sodipodi.sourceforge.net/DTD/sodipodi-0.dtd"
   xmlns="http://www.w3.org/2000/svg"
   xmlns:svg="http://www.w3.org/2000/svg">
  <defs
     id="defs4" />
  <sodipodi:namedview
     id="namedview4"
     pagecolor="#ffffff"
     bordercolor="#000000"
     borderopacity="0.25"
     inkscape:showpageshadow="2"
     inkscape:pageopacity="0.0"
     inkscape:pagecheckerboard="0"
     inkscape:deskcolor="#d1d1d1"
     inkscape:zoom="13.355881"
     inkscape:cx="33.95508"
     inkscape:cy="33.84277"
     inkscape:window-width="1472"
     inkscape:window-height="1027"
     inkscape:window-x="0"
     inkscape:window-y="25"
     inkscape:window-maximized="0"
     inkscape:current-layer="svg4" />
  <path
     fill="#FFC107"
     d="M43.611,20.083H42V20H24v8h11.303c-1.649,4.657-6.08,8-11.303,8c-6.627,0-12-5.373-12-12c0-6.627,5.373-12,12-12c3.059,0,5.842,1.154,7.961,3.039l5.657-5.657C34.046,6.053,29.268,4,24,4C12.955,4,4,12.955,4,24c0,11.045,8.955,20,20,20c11.045,0,20-8.955,20-20C44,22.659,43.862,21.35,43.611,20.083z"
     id="path1" />
  <path
     fill="#FF3D00"
     d="M6.306,14.691l6.571,4.819C14.655,15.108,18.961,12,24,12c3.059,0,5.842,1.154,7.961,3.039l5.657-5.657C34.046,6.053,29.268,4,24,4C16.318,4,9.656,8.337,6.306,14.691z"
     id="path2" />
  <path
     fill="#4CAF50"
     d="M24,44c5.166,0,9.86-1.977,13.409-5.192l-6.19-5.238C29.211,35.091,26.715,36,24,36c-5.202,0-9.619-3.317-11.283-7.946l-6.522,5.025C9.505,39.556,16.227,44,24,44z"
     id="path3" />
  <path
     fill="#1976d2"
     d="m 43.613609,19.93595 c -6.535243,0.01511 -13.070536,0.01291 -19.605797,0.01717 L 24,28 35.310812,27.949219 c -0.792,2.237 -2.231,4.169906 -4.087,5.574906 0.001,-10e-4 0.002,-0.0049 0.003,-0.0059 L 37.409,38.807 c -0.438,0.398 6.598812,-4.865594 6.598812,-14.865594 0,-1.341 -0.143202,-2.738456 -0.394203,-4.005456 z"
     id="path4"
     sodipodi:nodetypes="cccccccsc" />
</svg>
